<svg width="180" height="50" viewBox="0 0 180 50" xmlns="http://www.w3.org/2000/svg">
  <defs>
    <linearGradient id="logoGradient" x1="0%" y1="0%" x2="100%" y2="0%">
      <stop offset="0%" style="stop-color:#8b5cf6;stop-opacity:1" />
      <stop offset="50%" style="stop-color:#a78bfa;stop-opacity:1" />
      <stop offset="100%" style="stop-color:#c4b5fd;stop-opacity:1" />
    </linearGradient>
    <linearGradient id="flowGradient" x1="0%" y1="0%" x2="100%" y2="0%">
      <stop offset="0%" style="stop-color:#64ffda;stop-opacity:1" />
      <stop offset="100%" style="stop-color:#50fa7b;stop-opacity:1" />
    </linearGradient>
    <filter id="glow">
      <feGaussianBlur stdDeviation="3" result="coloredBlur"/>
      <feMerge> 
        <feMergeNode in="coloredBlur"/>
        <feMergeNode in="SourceGraphic"/>
      </feMerge>
    </filter>
  </defs>
  
  <!-- Playful sparkles around the logo -->
  <g opacity="0.7">
    <circle cx="15" cy="8" r="1.5" fill="url(#logoGradient)">
      <animate attributeName="opacity" values="0.3;1;0.3" dur="2s" repeatCount="indefinite"/>
    </circle>
    <polygon points="165,12 167,16 171,16 168,19 169,23 165,21 161,23 162,19 159,16 163,16" fill="url(#flowGradient)">
      <animateTransform attributeName="transform" type="rotate" values="0 165 17;360 165 17" dur="4s" repeatCount="indefinite"/>
    </polygon>
    <circle cx="25" cy="42" r="1" fill="url(#flowGradient)">
      <animate attributeName="opacity" values="0.5;1;0.5" dur="1.5s" repeatCount="indefinite"/>
    </circle>
    <polygon points="155,38 156,40 158,40 157,41 157,43 155,42 153,43 153,41 152,40 154,40" fill="url(#logoGradient)">
      <animate attributeName="opacity" values="0.4;1;0.4" dur="3s" repeatCount="indefinite"/>
    </polygon>
  </g>
  
  <!-- ACE part with geometric design (larger and more playful) -->
  <g transform="translate(5, 10)">
    <!-- A shape - triangular with bouncy animation -->
    <path d="M2 30 L10 5 L18 5 L26 30 L21 30 L19 24 L9 24 L7 30 Z M12 17 L16 17 L14 10 Z" fill="url(#logoGradient)" filter="url(#glow)">
      <animateTransform attributeName="transform" type="scale" values="1;1.05;1" dur="3s" repeatCount="indefinite"/>
    </path>
    
    <!-- C shape - modern circular cut with subtle wobble -->
    <path d="M32 5 C40 5 44 10 44 17.5 C44 25 40 30 32 30 L32 25 C36 25 39 22 39 17.5 C39 13 36 10 32 10 L32 5 Z" fill="url(#logoGradient)" filter="url(#glow)">
      <animateTransform attributeName="transform" type="rotate" values="0 38 17.5;2 38 17.5;0 38 17.5;-2 38 17.5;0 38 17.5" dur="4s" repeatCount="indefinite"/>
    </path>
    
    <!-- E shape - modern stepped design with pulse -->
    <path d="M50 5 L62 5 L62 10 L55 10 L55 15 L60 15 L60 20 L55 20 L55 25 L62 25 L62 30 L50 30 Z" fill="url(#logoGradient)" filter="url(#glow)">
      <animate attributeName="opacity" values="0.8;1;0.8" dur="2.5s" repeatCount="indefinite"/>
    </path>
    
    <!-- Fun separator with flowing animation -->
    <path d="M68 10 Q70 15 68 20 Q66 25 68 30" stroke="url(#logoGradient)" stroke-width="3" fill="none" filter="url(#glow)">
      <animate attributeName="d" values="M68 10 Q70 15 68 20 Q66 25 68 30;M68 10 Q66 15 68 20 Q70 25 68 30;M68 10 Q70 15 68 20 Q66 25 68 30" dur="3s" repeatCount="indefinite"/>
    </path>
  </g>
  
  <!-- FLOW part with flowing design (larger and more animated) -->
  <g transform="translate(75, 10)">
    <!-- F with a little dance -->
    <path d="M0 5 L13 5 L13 10 L5 10 L5 15 L10 15 L10 20 L5 20 L5 30 L0 30 Z" fill="url(#flowGradient)" filter="url(#glow)">
      <animateTransform attributeName="transform" type="translate" values="0 0;1 -1;0 0;-1 1;0 0" dur="4s" repeatCount="indefinite"/>
    </path>
    
    <!-- L with subtle bounce -->
    <path d="M18 5 L23 5 L23 25 L33 25 L33 30 L18 30 Z" fill="url(#flowGradient)" filter="url(#glow)">
      <animateTransform attributeName="transform" type="scale" values="1;1.02;1" dur="2s" repeatCount="indefinite"/>
    </path>
    
    <!-- O with spinning inner highlight -->
    <ellipse cx="43" cy="17.5" rx="8" ry="12.5" fill="none" stroke="url(#flowGradient)" stroke-width="5" filter="url(#glow)"/>
    <ellipse cx="45" cy="15" rx="2" ry="3" fill="url(#flowGradient)" opacity="0.6">
      <animateTransform attributeName="transform" type="rotate" values="0 43 17.5;360 43 17.5" dur="3s" repeatCount="indefinite"/>
    </ellipse>
    
    <!-- W with playful wiggle -->
    <path d="M58 5 L61 5 L63 20 L65 5 L68 5 L70 5 L72 20 L74 5 L77 5 L74 30 L71 30 L69 10 L67 30 L64 30 L62 10 L60 30 L57 30 Z" fill="url(#flowGradient)" filter="url(#glow)">
      <animateTransform attributeName="transform" type="skewX" values="0;2;0;-2;0" dur="5s" repeatCount="indefinite"/>
    </path>
  </g>
  
  <!-- Enhanced flowing elements with more movement -->
  <g opacity="0.4">
    <path d="M145 12 Q152 8 160 15 Q168 22 175 18" stroke="url(#flowGradient)" stroke-width="2.5" fill="none">
      <animate attributeName="d" values="M145 12 Q152 8 160 15 Q168 22 175 18;M145 12 Q152 10 160 13 Q168 20 175 18;M145 12 Q152 8 160 15 Q168 22 175 18" dur="3s" repeatCount="indefinite"/>
    </path>
    <path d="M145 25 Q152 21 160 28 Q168 35 175 31" stroke="url(#flowGradient)" stroke-width="2.5" fill="none">
      <animate attributeName="d" values="M145 25 Q152 21 160 28 Q168 35 175 31;M145 25 Q152 23 160 26 Q168 33 175 31;M145 25 Q152 21 160 28 Q168 35 175 31" dur="2.5s" repeatCount="indefinite"/>
    </path>
    <path d="M145 38 Q152 34 160 41 Q168 48 175 44" stroke="url(#flowGradient)" stroke-width="2.5" fill="none">
      <animate attributeName="d" values="M145 38 Q152 34 160 41 Q168 48 175 44;M145 38 Q152 36 160 39 Q168 46 175 44;M145 38 Q152 34 160 41 Q168 48 175 44" dur="4s" repeatCount="indefinite"/>
    </path>
  </g>
  
  <!-- Fun little particles floating around -->
  <g opacity="0.5">
    <circle cx="30" cy="5" r="0.8" fill="url(#logoGradient)">
      <animateTransform attributeName="transform" type="translate" values="0 0;5 -2;0 0;-3 2;0 0" dur="6s" repeatCount="indefinite"/>
    </circle>
    <circle cx="140" cy="45" r="1" fill="url(#flowGradient)">
      <animateTransform attributeName="transform" type="translate" values="0 0;-4 -3;0 0;2 1;0 0" dur="5s" repeatCount="indefinite"/>
    </circle>
    <rect x="120" y="8" width="2" height="2" fill="url(#logoGradient)" transform="rotate(45 121 9)">
      <animateTransform attributeName="transform" type="rotate" values="45 121 9;405 121 9" dur="8s" repeatCount="indefinite"/>
    </rect>
  </g>
</svg>